<mxfile host="app.diagrams.net" modified="2021-06-09T13:12:34.683Z" agent="5.0 (Windows NT 10.0; Win64; x64) AppleWebKit/537.36 (KHTML, like Gecko) Chrome/91.0.4472.77 Safari/537.36" etag="7gOTRvg9HCmUfSlpNvtP" version="14.7.6" type="github">
  <diagram id="7HNN-H1pkJJKvtaQvAyW" name="Page-1">
    <mxGraphModel dx="782" dy="379" grid="1" gridSize="10" guides="1" tooltips="1" connect="1" arrows="1" fold="1" page="1" pageScale="1" pageWidth="827" pageHeight="1169" math="0" shadow="0">
      <root>
        <mxCell id="0" />
        <mxCell id="1" parent="0" />
        <mxCell id="kQDAgGPCkV0VIzTcdMAt-1" value="" style="rounded=0;whiteSpace=wrap;html=1;strokeWidth=3;strokeColor=#993F1F;" vertex="1" parent="1">
          <mxGeometry x="34" y="130" width="380" height="200" as="geometry" />
        </mxCell>
        <mxCell id="kQDAgGPCkV0VIzTcdMAt-2" value="" style="aspect=fixed;html=1;points=[];align=center;image;fontSize=12;image=img/lib/azure2/networking/Virtual_Networks.svg;strokeColor=#993F1F;strokeWidth=3;fillColor=#FF0A4B;" vertex="1" parent="1">
          <mxGeometry x="20" y="90" width="67" height="40" as="geometry" />
        </mxCell>
        <mxCell id="kQDAgGPCkV0VIzTcdMAt-3" value="" style="rounded=1;whiteSpace=wrap;html=1;strokeWidth=3;strokeColor=#000099;" vertex="1" parent="1">
          <mxGeometry x="50" y="147.5" width="100" height="165" as="geometry" />
        </mxCell>
        <mxCell id="kQDAgGPCkV0VIzTcdMAt-4" value="" style="rounded=1;whiteSpace=wrap;html=1;strokeWidth=3;strokeColor=#000099;" vertex="1" parent="1">
          <mxGeometry x="174" y="147.5" width="100" height="165" as="geometry" />
        </mxCell>
        <mxCell id="kQDAgGPCkV0VIzTcdMAt-5" value="" style="rounded=1;whiteSpace=wrap;html=1;strokeWidth=3;strokeColor=#000099;" vertex="1" parent="1">
          <mxGeometry x="300" y="147.5" width="100" height="165" as="geometry" />
        </mxCell>
        <mxCell id="kQDAgGPCkV0VIzTcdMAt-6" value="SUBNET-1" style="text;html=1;strokeColor=none;fillColor=none;align=center;verticalAlign=middle;whiteSpace=wrap;rounded=0;strokeWidth=2;fontStyle=1;fontColor=#99004D;fontSize=14;" vertex="1" parent="1">
          <mxGeometry x="20" y="147.5" width="160" height="30" as="geometry" />
        </mxCell>
        <mxCell id="kQDAgGPCkV0VIzTcdMAt-12" value="SUBNET-3" style="text;html=1;strokeColor=none;fillColor=none;align=center;verticalAlign=middle;whiteSpace=wrap;rounded=0;strokeWidth=2;fontStyle=1;fontColor=#99004D;fontSize=14;" vertex="1" parent="1">
          <mxGeometry x="274" y="147.5" width="160" height="30" as="geometry" />
        </mxCell>
        <mxCell id="kQDAgGPCkV0VIzTcdMAt-13" value="SUBNET-2" style="text;html=1;strokeColor=none;fillColor=none;align=center;verticalAlign=middle;whiteSpace=wrap;rounded=0;strokeWidth=2;fontStyle=1;fontColor=#99004D;fontSize=14;" vertex="1" parent="1">
          <mxGeometry x="140" y="147.5" width="160" height="30" as="geometry" />
        </mxCell>
        <mxCell id="kQDAgGPCkV0VIzTcdMAt-15" value="" style="aspect=fixed;html=1;points=[];align=center;image;fontSize=12;image=img/lib/azure2/compute/VM_Images_Classic.svg;fontColor=#99004D;strokeColor=#000099;strokeWidth=2;fillColor=#FF0A4B;" vertex="1" parent="1">
          <mxGeometry x="2160" y="520" width="32.34" height="30" as="geometry" />
        </mxCell>
        <mxCell id="kQDAgGPCkV0VIzTcdMAt-16" value="" style="aspect=fixed;html=1;points=[];align=center;image;fontSize=12;image=img/lib/azure2/compute/VM_Images_Classic.svg;fontColor=#99004D;strokeColor=#000099;strokeWidth=2;fillColor=#FF0A4B;" vertex="1" parent="1">
          <mxGeometry x="60" y="177.5" width="43.13" height="40" as="geometry" />
        </mxCell>
        <mxCell id="kQDAgGPCkV0VIzTcdMAt-21" value="" style="aspect=fixed;html=1;points=[];align=center;image;fontSize=12;image=img/lib/azure2/compute/VM_Images_Classic.svg;fontColor=#99004D;strokeColor=#000099;strokeWidth=2;fillColor=#FF0A4B;" vertex="1" parent="1">
          <mxGeometry x="198.43" y="177.5" width="43.13" height="40" as="geometry" />
        </mxCell>
        <mxCell id="kQDAgGPCkV0VIzTcdMAt-22" value="" style="aspect=fixed;html=1;points=[];align=center;image;fontSize=12;image=img/lib/azure2/compute/VM_Images_Classic.svg;fontColor=#99004D;strokeColor=#000099;strokeWidth=2;fillColor=#FF0A4B;" vertex="1" parent="1">
          <mxGeometry x="202.43" y="260" width="43.13" height="40" as="geometry" />
        </mxCell>
        <mxCell id="kQDAgGPCkV0VIzTcdMAt-23" value="" style="aspect=fixed;html=1;points=[];align=center;image;fontSize=12;image=img/lib/azure2/compute/VM_Images_Classic.svg;fontColor=#99004D;strokeColor=#000099;strokeWidth=2;fillColor=#FF0A4B;" vertex="1" parent="1">
          <mxGeometry x="70" y="260" width="43.13" height="40" as="geometry" />
        </mxCell>
        <mxCell id="kQDAgGPCkV0VIzTcdMAt-24" value="" style="aspect=fixed;html=1;points=[];align=center;image;fontSize=12;image=img/lib/azure2/compute/VM_Images_Classic.svg;fontColor=#99004D;strokeColor=#000099;strokeWidth=2;fillColor=#FF0A4B;" vertex="1" parent="1">
          <mxGeometry x="328.43" y="260" width="43.13" height="40" as="geometry" />
        </mxCell>
        <mxCell id="kQDAgGPCkV0VIzTcdMAt-25" value="" style="aspect=fixed;html=1;points=[];align=center;image;fontSize=12;image=img/lib/azure2/compute/VM_Images_Classic.svg;fontColor=#99004D;strokeColor=#000099;strokeWidth=2;fillColor=#FF0A4B;" vertex="1" parent="1">
          <mxGeometry x="320" y="177.5" width="43.13" height="40" as="geometry" />
        </mxCell>
        <mxCell id="kQDAgGPCkV0VIzTcdMAt-26" value="" style="aspect=fixed;html=1;points=[];align=center;image;fontSize=12;image=img/lib/azure2/storage/Storage_Accounts.svg;fontColor=#99004D;strokeColor=#000099;strokeWidth=2;fillColor=#FF0A4B;" vertex="1" parent="1">
          <mxGeometry x="440" y="366" width="192.5" height="154" as="geometry" />
        </mxCell>
        <mxCell id="kQDAgGPCkV0VIzTcdMAt-27" value="" style="shape=flexArrow;endArrow=classic;startArrow=classic;html=1;fontSize=15;fontColor=#19B50E;strokeWidth=2;strokeColor=#20A816;" edge="1" parent="1">
          <mxGeometry width="100" height="100" relative="1" as="geometry">
            <mxPoint x="198.43" y="312.5" as="sourcePoint" />
            <mxPoint x="436.43" y="472.5" as="targetPoint" />
            <Array as="points">
              <mxPoint x="198.43" y="472.5" />
            </Array>
          </mxGeometry>
        </mxCell>
        <mxCell id="kQDAgGPCkV0VIzTcdMAt-28" value="" style="aspect=fixed;html=1;points=[];align=center;image;fontSize=12;image=img/lib/azure2/compute/VM_Images_Classic.svg;fontColor=#99004D;strokeColor=#000099;strokeWidth=2;fillColor=#FF0A4B;" vertex="1" parent="1">
          <mxGeometry x="520" y="250" width="43.13" height="40" as="geometry" />
        </mxCell>
      </root>
    </mxGraphModel>
  </diagram>
</mxfile>
